<svg viewBox="0 0 642 652" xmlns="http://www.w3.org/2000/svg"><path d="m525.513 477.057-35.209-60.813c4.508-8.369 8.16-16.452 11.117-24.576 2.957-8.125 5.355-16.663 7.28-25.973l66.063-23.953a10.652 10.652 0 0 0 6.872-11.876l-17.04-96.636a10.682 10.682 0 0 0 -10.514-8.816l-70.168.09c-9.472-15.186-21.101-29.009-34.681-41.19l12.288-69.211a10.672 10.672 0 0 0 -6.86-11.884l-92.207-33.56a10.67 10.67 0 0 0 -12.894 4.696l-35.075 60.917c-18.233.603-36.026 3.715-53.043 9.26l-53.695-45.172c-3.936-3.35-9.758-3.341-13.722-.006l-75.169 63.074a10.652 10.652 0 0 0 -2.369 13.515l35.209 60.813c-4.508 8.369-8.16 16.452-11.117 24.576-2.957 8.125-5.355 16.663-7.28 25.973l-66.063 23.953a10.652 10.652 0 0 0 -6.872 11.876l17.04 96.635c.91 5.11 5.383 8.843 10.514 8.816l70.169-.09c9.47 15.186 21.1 29.009 34.68 41.19l-12.287 69.211a10.671 10.671 0 0 0 6.858 11.886l92.208 33.56a10.67 10.67 0 0 0 12.894-4.696l35.075-60.917c18.232-.603 36.026-3.715 53.043-9.26l53.694 45.171c3.957 3.292 9.749 3.337 13.722.005l75.169-63.073a10.652 10.652 0 0 0 2.37-13.515zm-240.995-50.823c-55.266-20.115-83.867-81.45-63.752-136.716s81.45-83.867 136.716-63.752 83.867 81.451 63.752 136.716-81.45 83.867-136.716 63.752z"/></svg>