<svg viewBox="0 0 28 28" xmlns="http://www.w3.org/2000/svg"><path d="M10.134 3a1.664 1.664 0 00-1.122.461c-.298.288-.47.675-.478 1.082v1.029c0 .204.084.4.234.545.15.145.354.226.566.226a.815.815 0 00.565-.226.758.758 0 00.235-.545v-1.03H22.4v7.715h-1.066a.815.815 0 00-.566.226.758.758 0 00-.234.545v1.157l-2.15-1.752a.819.819 0 00-.517-.176h-.534a.815.815 0 00-.565.226.758.758 0 00-.234.545c0 .205.084.4.234.545.15.145.353.226.566.226h.24l3.242 2.644a.815.815 0 00.852.111.791.791 0 00.338-.283.751.751 0 00.126-.414v-2.058h.267a1.664 1.664 0 001.122-.46c.298-.288.47-.676.478-1.082V4.543a1.548 1.548 0 00-.478-1.082A1.664 1.664 0 0022.4 3H10.134zM1.6 7.374a1.664 1.664 0 00-1.122.462C.18 8.123.008 8.51 0 8.917v7.714c.009.407.18.794.478 1.082.298.287.7.453 1.122.46h.267v2.058c0 .147.044.29.126.414a.8.8 0 00.338.284.828.828 0 00.853-.112l3.241-2.643h7.476a1.66 1.66 0 001.102-.47c.292-.288.458-.671.465-1.073V8.917a1.548 1.548 0 00-.478-1.081 1.664 1.664 0 00-1.122-.462H1.6zm0 1.543h12.268v7.714H6.133a.819.819 0 00-.516.177l-2.15 1.752v-1.157a.76.76 0 00-.235-.546.815.815 0 00-.565-.226H1.6V8.917z"/></svg>