<svg xmlns="http://www.w3.org/2000/svg" viewBox="0 0 612 612"><path d="M609.608 315.426a19.767 19.767 0 000-18.853c-58.464-107.643-172.5-180.72-303.607-180.72S60.857 188.931 2.393 296.573a19.767 19.767 0 000 18.853C60.858 423.069 174.892 496.147 306 496.147s245.143-73.078 303.608-180.721zM306 451.855c-80.554 0-145.855-65.302-145.855-145.855S225.446 160.144 306 160.144 451.856 225.446 451.856 306 386.554 451.855 306 451.855z"/><path d="M306 231.67c-6.136 0-12.095.749-17.798 2.15 5.841 6.76 9.383 15.563 9.383 25.198 0 21.3-17.267 38.568-38.568 38.568-9.635 0-18.438-3.541-25.198-9.383a74.513 74.513 0 00-2.15 17.798c0 41.052 33.279 74.33 74.33 74.33s74.33-33.279 74.33-74.33S347.052 231.67 306 231.67z"/></svg>