<svg viewBox="0 0 28 28" xmlns="http://www.w3.org/2000/svg">
	<path
		d="M13.79 17.497a.18.18 0 00.18-.181v-1.774l.697-.486a4.26 4.26 0 001.824-3.491 4.258 4.258 0 00-4.253-4.253 4.257 4.257 0 00-4.252 4.253 4.26 4.26 0 001.823 3.49l.697.487v1.774c0 .1.081.18.18.18h3.103zm0 1.628h-3.103c-1 0-1.81-.81-1.81-1.809v-.925a5.881 5.881 0 116.721 0v.925c0 1-.81 1.81-1.809 1.81z" />
	<path d="M10.429 21h3.619M5 4.714l.905.905M12.238 2v1.81m7.238.904l-.905.905" stroke="#000" stroke-width="2"
		stroke-linecap="round" />
</svg>
